<svg xmlns="http://www.w3.org/2000/svg" xmlns:xlink="http://www.w3.org/1999/xlink" viewBox="0 0 95 24"><path d="M 94.792 0.784 L 94.792 23.074 L 38.441 23.074 L 47.558 14.534 L 51.53 18.297 L 60.422 18.297 L 52.246 10.463 L 63.12 0.784 Z M 72.129 11.227 L 90.588 19.294 L 90.588 2.978 L 85.392 2.978 L 85.392 11.227 L 84.984 11.045 L 67.208 2.77 L 67.208 19.087 L 72.204 19.087 M 54.427 0.784 C 53.946 1.347 52.446 2.679 52.229 2.87 C 50.772 4.199 49.473 5.719 47.908 6.94 L 43.737 2.778 L 35.044 2.778 L 43.029 10.621 L 28.949 23.083 L 0.041 23.083 L 0.041 0.793 L 54.427 0.793 Z M 30.848 18.696 L 17.559 2.579 L 2.472 18.896 L 8.767 18.896 C 9.891 17.832 11.864 15.307 12.147 15.307 C 16.177 15.356 19.124 15.282 22.513 15.307 L 25.153 18.696 Z" fill="rgb(255,255,255)"></path><path d="M 20.657 12.125 L 14.062 12.125 C 14.287 11.767 17.368 7.913 17.534 7.655" fill="rgb(255,255,255)"></path></svg>