<svg xmlns="http://www.w3.org/2000/svg" xmlns:xlink="http://www.w3.org/1999/xlink" viewBox="0 0 146 21"><g transform="translate(0 0)" id="ss9168194619_1"><path d="M 0 18.761 L 17.615 18.761 L 16.603 20.174 L 0 20.174 Z M 145.273 20.174 L 123.71 20.174 L 124.823 18.761 L 145.374 18.761 L 145.374 20.174 Z M 0 16.139 L 19.64 16.139 L 18.526 17.551 L 0 17.551 Z M 0 13.516 L 21.664 13.516 L 20.551 14.928 L 0 14.928 Z M 145.273 17.551 L 125.734 17.551 L 126.848 16.139 L 145.374 16.139 L 145.374 17.551 Z M 128.771 13.516 L 145.273 13.516 L 145.273 14.928 L 127.658 14.928 Z M 19.032 20.174 L 28.346 7.767 L 39.887 7.767 C 41.203 7.767 41.203 8.271 40.494 9.078 C 39.887 9.885 38.773 11.398 38.166 12.205 C 37.862 12.709 37.255 13.415 39.178 13.415 L 54.667 13.415 C 53.452 15.231 49.2 20.275 41.709 20.275 C 35.635 20.174 19.032 20.174 19.032 20.174 Z M 72.383 13.516 L 67.321 20.275 L 54.06 20.275 L 59.121 13.516 Z M 91.719 13.516 L 86.657 20.275 L 73.294 20.275 L 78.356 13.516 Z M 96.072 13.516 C 96.072 13.516 95.06 14.828 94.655 15.433 C 92.934 17.652 94.453 20.275 99.919 20.275 L 121.381 20.275 L 126.443 13.516 Z" fill="rgb(255, 255, 255)"></path><path d="M 25.613 0.101 L 20.956 6.254 L 46.265 6.254 C 47.581 6.254 47.581 6.758 46.872 7.565 C 46.265 8.372 45.151 9.885 44.544 10.692 C 44.24 11.096 43.632 11.902 45.556 11.902 L 55.882 11.902 C 55.882 11.902 57.603 9.683 58.919 7.767 C 60.842 5.245 59.121 0 52.339 0 C 46.265 0.101 25.613 0.101 25.613 0.101 Z M 92.833 11.902 L 60.235 11.902 L 69.144 0.101 L 82.507 0.101 L 77.445 6.859 L 83.418 6.859 L 88.48 0.101 L 101.843 0.101 Z M 120.268 0.101 L 111.359 11.902 L 97.186 11.902 L 106.095 0.101 Z" fill="rgb(255, 255, 255)"></path></g></svg>