<svg xmlns="http://www.w3.org/2000/svg" xmlns:xlink="http://www.w3.org/1999/xlink" viewBox="0 0 59 39"><path d="M 56.792 29.58 C 54.206 31.328 49.016 33.577 41.008 31.567 C 40.242 31.369 39.511 31.172 38.808 30.96 C 33.754 28.779 28.621 26.421 26.542 24.884 C 32.336 25.79 41.01 26.674 54.993 24.431 C 54.993 24.431 56.311 26.503 56.792 29.58 M 2.44 30.98 L 0 31.839 C 0 31.839 2.783 35.145 3.272 36.234 L 3.955 38.111 C 3.955 38.111 12.784 33.265 25.627 33.996 C 28.541 34.161 31.099 35.003 31.099 35.003 C 31.099 35.003 25.867 31.598 24.817 31.268 C 19.781 30.015 14.986 29.645 12.15 29.544 C 7.288 30.833 3.137 33.05 3.137 33.05 C 3.137 33.05 2.802 32.04 2.44 30.98" fill="rgb(255, 255, 255)" opacity="0.38"></path><path d="M 58.757 27.935 C 58.757 27.935 58.108 28.694 56.792 29.58 C 54.205 31.328 49.016 33.577 41.008 31.565 C 40.242 31.368 39.513 31.172 38.807 30.961 C 31.503 28.821 27.161 26.057 17.364 24.857 C 10.726 25.019 3.997 25.795 0.315 27.251 C 0.315 27.251 1.322 28.278 1.618 28.706 C 1.766 29.024 2.114 30.018 2.441 30.98 C 2.801 32.04 3.137 33.05 3.137 33.05 C 3.137 33.05 7.288 30.833 12.15 29.544 C 14.431 28.935 16.877 28.532 19.116 28.661 C 26.591 29.131 32.621 32.986 39.307 36.118 C 43.947 37.411 55.261 38.392 58.452 36.957 C 58.452 36.957 59.099 33.901 58.757 27.935" fill="rgb(255, 255, 255)"></path><path d="M 19.888 10.993 C 16.877 10.993 15.102 15.224 15.102 18.194 C 15.102 19.419 15.412 19.966 16.06 19.966 C 17.774 19.966 20.674 15.05 21.246 11.984 L 21.396 11.191 C 20.976 11.096 20.502 10.993 19.888 10.993 M 23.472 23.683 L 19.065 23.684 C 19.261 22.528 19.641 21.239 20.257 19.528 L 20.19 19.526 C 18.801 21.848 16.83 24.075 14.33 24.075 C 11.77 24.074 10.486 22.429 10.485 18.975 C 10.485 12.9 13.65 7.335 20.74 7.337 C 21.126 7.337 21.514 7.37 22.128 7.465 L 22.841 3.751 L 22.841 3.722 C 22.127 3.592 21.064 3.462 20.122 3.399 L 20.74 0.386 C 22.984 0.167 25.285 0 27.967 0.098 Z M 50.033 23.684 L 45.649 23.684 L 47.238 13.825 C 47.566 12.209 47.333 11.597 46.594 11.597 C 45.102 11.597 42.41 15.528 41.794 19.378 L 41.097 23.684 L 36.718 23.684 L 38.356 13.825 C 38.678 12.209 38.455 11.597 37.711 11.597 C 36.219 11.597 33.601 15.475 32.884 19.282 L 32.042 23.687 L 27.669 23.684 L 30.035 11.318 L 30.035 11.223 C 29.322 11.095 28.256 10.962 27.313 10.899 L 27.929 7.889 C 30.26 7.632 32.464 7.502 34.891 7.601 C 34.634 8.859 34.211 10.308 33.659 11.731 L 33.726 11.733 C 35.184 9.248 36.74 7.336 39.588 7.336 C 41.499 7.337 42.738 8.338 42.738 10.502 C 42.738 10.892 42.641 11.306 42.48 11.953 L 42.514 11.985 C 44.001 9.305 45.808 7.336 48.651 7.336 C 51.792 7.337 52.431 9.597 51.846 12.6 Z" fill="rgb(255, 255, 255)"></path></svg>