<svg xmlns="http://www.w3.org/2000/svg" xmlns:xlink="http://www.w3.org/1999/xlink" viewBox="0 0 62 26"><path d="M 49.12 0.49 C 43.637 0.49 38.978 4.04 37.271 8.985 C 37.337 8.499 37.366 7.97 37.366 7.388 C 37.366 5.557 36.323 3.567 34.833 2.49 C 33.439 1.475 32.031 0.857 30.345 0.857 L 19.484 0.857 L 19.484 25.776 L 29.665 25.776 C 31.677 25.776 33.399 25.032 35.119 23.789 C 36.707 22.646 37.724 20.606 37.724 18.679 L 37.724 18.412 C 39.706 22.768 44.067 25.792 49.126 25.792 C 56.053 25.792 61.667 20.13 61.667 13.143 C 61.667 6.156 56.053 0.494 49.126 0.494 Z M 25.826 6.261 L 28.481 6.261 C 29.777 6.261 31.135 6.489 31.135 8.155 C 31.231 9.659 30.338 10.552 28.55 10.552 L 25.826 10.562 Z M 30.752 19.661 C 30.2 20.121 29.452 20.087 28.77 20.087 L 25.813 20.087 L 25.813 15.513 L 28.507 15.513 C 30.138 15.513 31.536 15.939 31.608 17.86 C 31.608 18.481 31.237 19.301 30.748 19.661 Z M 36.73 14.858 C 36.244 14.211 35.536 13.596 34.512 13.004 C 35.67 12.403 36.412 11.662 36.855 10.677 C 36.697 11.477 36.615 12.3 36.615 13.146 C 36.615 13.728 36.654 14.3 36.73 14.858 Z M 49.064 19.721 C 45.461 19.721 42.541 16.776 42.541 13.14 C 42.541 9.504 45.461 6.559 49.064 6.559 C 52.667 6.559 55.587 9.504 55.587 13.14 C 55.587 16.776 52.667 19.721 49.064 19.721 Z M 11.721 10.003 L 6.595 10.003 L 6.595 0.814 L 0.272 0.814 L 0.272 25.819 L 6.566 25.819 L 6.566 16.058 L 11.691 16.058 L 11.691 25.819 L 18.093 25.819 L 18.093 0.814 L 11.721 0.814 Z M 59.114 24.384 C 58.688 24.384 58.356 24.685 58.356 25.121 C 58.356 25.558 58.691 25.859 59.114 25.859 C 59.538 25.859 59.872 25.558 59.872 25.121 C 59.872 24.685 59.538 24.384 59.114 24.384 Z M 59.114 25.65 C 58.812 25.65 58.586 25.426 58.586 25.125 C 58.586 24.824 58.809 24.596 59.114 24.596 C 59.42 24.596 59.643 24.824 59.643 25.125 C 59.643 25.426 59.413 25.65 59.114 25.65 Z" fill="rgb(255,255,255)"></path></svg>