<svg xmlns="http://www.w3.org/2000/svg" xmlns:xlink="http://www.w3.org/1999/xlink" viewBox="0 0 95 24"><path d="M 71.5 12 C 71.5 5.649 76.649 0.5 83 0.5 C 89.351 0.5 94.5 5.649 94.5 12 C 94.5 18.351 89.351 23.5 83 23.5 C 76.649 23.5 71.5 18.351 71.5 12 Z" fill="transparent" stroke="rgb(190,101,235)" stroke-miterlimit="10" stroke-dasharray=""></path><path d="M 85.354 12.354 C 85.549 12.158 85.549 11.842 85.354 11.646 L 82.172 8.464 C 81.976 8.269 81.66 8.269 81.464 8.464 C 81.269 8.66 81.269 8.976 81.464 9.172 L 84.293 12 L 81.464 14.828 C 81.269 15.024 81.269 15.34 81.464 15.536 C 81.66 15.731 81.976 15.731 82.172 15.536 Z M 4 12.5 L 85 12.5 L 85 11.5 L 4 11.5 Z" fill="rgb(255,255,255)"></path></svg>