<svg xmlns="http://www.w3.org/2000/svg" xmlns:xlink="http://www.w3.org/1999/xlink" viewBox="0 0 144 26"><g transform="translate(0.78 0.077)" id="ss11133828368_1"><path d="M 18.951 21.037 L 18.951 24.068 L 0 24.068 L 0 3.223 L 3.412 3.223 L 3.412 21.037 Z M 16.298 10.803 L 20.087 3.601 L 16.487 3.601 L 13.644 10.803 Z M 47.281 6.644 C 46.052 4.71 44.257 3.085 42.144 1.977 C 40.03 0.868 37.598 0.278 35.166 0.278 C 32.735 0.278 30.302 0.868 28.189 1.977 C 26.075 3.085 24.28 4.71 23.051 6.644 C 21.822 8.578 21.159 10.82 21.159 13.062 C 21.159 15.304 21.822 17.546 23.051 19.479 C 24.28 21.413 26.075 23.039 28.189 24.147 C 30.302 25.255 32.735 25.846 35.166 25.846 C 37.598 25.846 40.03 25.256 42.144 24.147 C 44.257 23.039 46.052 21.413 47.281 19.479 C 48.51 17.546 49.173 15.303 49.173 13.062 C 49.173 10.821 48.51 8.578 47.281 6.644 Z M 44.332 18.167 C 43.415 19.684 42.073 20.963 40.49 21.837 C 38.907 22.709 37.082 23.175 35.257 23.175 C 33.432 23.175 31.607 22.709 30.024 21.837 C 28.441 20.963 27.1 19.684 26.182 18.167 C 25.265 16.649 24.772 14.895 24.772 13.14 C 24.772 11.384 25.265 9.63 26.182 8.113 C 27.1 6.596 28.441 5.317 30.024 4.444 C 31.607 3.571 33.433 3.105 35.257 3.105 C 37.081 3.105 38.907 3.571 40.49 4.444 C 42.073 5.317 43.414 6.596 44.332 8.113 C 45.25 9.629 45.737 11.367 45.743 13.14 C 45.737 14.913 45.249 16.65 44.332 18.167 Z M 72.962 12.212 C 72.345 13.57 71.178 14.355 70.265 14.83 C 69.352 15.305 68.694 15.47 68.031 15.446 L 74.664 24.069 L 70.874 24.069 L 64.459 15.731 L 56.092 15.731 L 56.092 24.069 L 52.681 24.069 L 52.681 3.223 L 66.325 3.223 C 67.704 3.223 69.103 3.494 70.337 4.188 C 71.571 4.883 72.639 5.938 73.141 7.431 C 73.642 8.923 73.578 10.854 72.962 12.212 Z M 69.146 12.07 C 69.865 11.462 70.29 10.464 70.253 9.473 C 70.216 8.482 69.717 7.501 69.004 6.902 C 68.29 6.304 67.378 6.254 66.515 6.254 L 56.092 6.254 L 56.092 12.698 L 66.515 12.698 C 67.436 12.698 68.428 12.678 69.146 12.07 Z M 92.667 12.13 L 92.667 14.972 L 81.107 14.972 L 81.107 21.037 L 96.646 21.037 L 96.646 24.068 L 77.695 24.068 L 77.695 3.223 L 96.646 3.223 L 96.646 6.254 L 81.107 6.254 L 81.107 12.13 Z M 92.856 0 L 87.739 0 L 85.655 2.653 Z M 103.327 18.762 L 100.625 24.068 L 97.215 24.068 L 107.826 3.222 L 111.237 3.222 L 121.85 24.068 L 118.438 24.068 L 115.737 18.762 Z M 109.531 6.573 L 104.676 16.109 L 114.386 16.109 Z M 142.505 21.037 L 142.505 24.068 L 123.555 24.068 L 123.555 3.223 L 126.966 3.223 L 126.966 21.037 Z M 141.028 7.406 L 140.998 6.908 C 140.994 6.817 141.001 6.725 140.964 6.621 C 140.926 6.515 140.869 6.416 140.795 6.33 C 140.743 6.265 140.668 6.223 140.585 6.212 C 140.733 6.16 140.857 6.059 140.937 5.925 C 141.026 5.782 141.081 5.594 141.079 5.392 C 141.077 5.189 141.015 4.973 140.907 4.813 C 140.675 4.472 140.265 4.414 139.907 4.43 L 138.397 4.43 L 138.397 7.913 L 138.983 7.913 L 138.983 6.483 L 139.859 6.483 C 139.954 6.483 140.113 6.47 140.273 6.594 C 140.484 6.843 140.39 7.172 140.428 7.45 C 140.431 7.616 140.447 7.773 140.515 7.913 L 141.174 7.913 L 141.174 7.806 C 141.054 7.756 141.043 7.582 141.028 7.406 Z M 140.304 5.871 C 140.123 5.987 139.935 5.988 139.805 5.986 L 138.978 5.986 L 138.978 4.925 C 139.339 4.93 139.702 4.91 140.06 4.939 C 140.228 4.957 140.374 5.061 140.446 5.214 C 140.521 5.444 140.524 5.691 140.304 5.871 Z" fill="rgb(255, 255, 255)"></path><path d="M 142.302 4.69 C 142.045 4.246 141.67 3.871 141.226 3.615 C 140.782 3.358 140.27 3.221 139.757 3.221 C 139.245 3.221 138.732 3.358 138.288 3.615 C 137.844 3.871 137.469 4.246 137.213 4.69 C 136.956 5.135 136.818 5.647 136.818 6.16 C 136.818 6.673 136.956 7.185 137.213 7.629 C 137.469 8.072 137.844 8.448 138.288 8.704 C 138.732 8.961 139.245 9.098 139.757 9.098 C 140.27 9.098 140.782 8.961 141.226 8.704 C 141.67 8.448 142.045 8.073 142.302 7.629 C 142.558 7.184 142.697 6.673 142.697 6.16 C 142.697 5.647 142.558 5.135 142.302 4.69 Z M 141.95 7.438 C 141.73 7.816 141.414 8.131 141.036 8.35 C 140.656 8.569 140.225 8.684 139.787 8.684 C 138.895 8.684 138.072 8.209 137.624 7.438 C 137.179 6.666 137.179 5.716 137.624 4.945 C 138.314 3.751 139.841 3.342 141.036 4.032 C 141.412 4.25 141.731 4.568 141.95 4.945 C 142.168 5.324 142.283 5.754 142.284 6.191 C 142.284 6.626 142.168 7.061 141.95 7.438 Z" fill="rgb(255, 255, 255)"></path></g></svg>