<svg xmlns="http://www.w3.org/2000/svg" xmlns:xlink="http://www.w3.org/1999/xlink" viewBox="0 0 124 38"><path d="M 28.443 10.089 C 28.443 5.022 24.34 0.915 19.279 0.915 C 14.218 0.915 10.114 5.022 10.114 10.089 Z M 28.443 28.343 C 28.443 33.409 24.34 37.517 19.279 37.517 C 14.218 37.517 10.114 33.409 10.114 28.343 Z M 18.293 19.212 C 13.671 19.684 10.054 23.651 10.054 28.4 C 4.993 28.4 0.889 24.292 0.889 19.226 C 0.889 14.16 5.003 10.042 10.065 10.042 C 10.065 14.792 13.672 18.743 18.293 19.212 Z M 20.308 19.212 C 24.93 19.684 28.547 23.651 28.547 28.4 C 33.608 28.4 37.711 24.292 37.711 19.226 C 37.711 14.16 33.597 10.042 28.536 10.042 C 28.536 14.792 24.93 18.743 20.308 19.212 Z M 82.014 13.22 L 84.025 13.22 C 84.724 13.22 86.252 13.133 86.252 14.97 C 86.252 16.763 85.204 17.288 84.025 17.288 L 82.014 17.288 L 82.014 17.856 L 88.132 27.391 L 93.244 27.391 L 87.869 19.431 C 90.71 18.075 90.841 15.977 90.841 14.489 C 90.841 10.159 87.302 9.547 85.947 9.547 L 77.645 9.547 L 77.645 27.391 L 82.014 27.391 L 82.014 13.22 Z" fill="rgb(255, 255, 255)"></path><path d="M 105.86 22.503 C 104.496 23.803 103.045 23.975 100.825 23.975 C 98.095 23.975 95.881 21.635 95.881 18.424 C 95.881 15.213 98.095 12.61 100.825 12.61 C 102.851 12.61 104.54 13.044 105.858 14.26 L 105.861 9.962 C 104.434 9.164 102.692 8.767 100.825 8.767 C 95.569 8.767 91.309 11.951 91.309 18.424 C 91.309 24.634 95.569 27.949 100.825 27.949 C 102.696 27.949 104.67 27.695 105.869 27.076 Z M 106.981 27.39 L 106.981 9.547 L 111.351 9.547 L 111.351 17.288 L 117.118 9.547 L 122.274 9.547 L 116.726 17.769 L 123.323 27.39 L 117.862 27.39 L 111.351 17.944 L 111.351 27.39 Z M 45.554 27.391 L 49.749 27.391 L 49.749 15.715 L 55.079 27.917 L 60.497 15.583 L 60.497 27.391 L 64.867 27.391 L 64.867 9.592 L 58.443 9.592 L 55.079 17.464 L 51.715 9.592 L 45.554 9.592 Z M 66.04 9.547 L 76.701 9.547 L 76.701 13.22 L 70.408 13.22 L 70.408 16.457 L 76.133 16.457 L 76.133 20.13 L 70.408 20.13 L 70.408 23.716 L 76.701 23.716 L 76.701 27.39 L 66.04 27.39 Z" fill="rgb(255, 255, 255)"></path></svg>