<svg xmlns="http://www.w3.org/2000/svg" xmlns:xlink="http://www.w3.org/1999/xlink" viewBox="0 0 266 44"><g transform="translate(0 0)" id="ss10160178229_1"><path d="M 231.743 12.207 C 233.369 9.941 235.195 7.757 237.187 5.688 C 239.162 3.644 241.281 1.744 243.527 0.003 L 241.154 9.502" fill="rgb(205,208,211)"></path><path d="M 248.2 16.31 C 245.381 16.024 242.587 15.536 239.838 14.85 C 237.078 14.163 234.371 13.28 231.737 12.207 L 241.155 9.502" fill="rgb(91,91,99)"></path><path d="M 243.524 0 C 244.684 2.586 245.66 5.25 246.445 7.974 C 247.226 10.707 247.813 13.493 248.2 16.31 L 241.155 9.502" fill="rgb(146,149,155)"></path><path d="M 228.42 31.742 C 226.744 29.455 225.235 27.05 223.906 24.546 C 222.569 22.036 221.414 19.433 220.451 16.758 L 228.76 21.951" fill="rgb(146,149,155)"></path><path d="M 237.404 17.357 C 236.26 19.949 234.933 22.457 233.434 24.861 C 231.929 27.273 230.253 29.573 228.42 31.745 L 228.763 21.953" fill="rgb(91,91,99)"></path><path d="M 220.454 16.758 C 223.273 16.457 226.11 16.354 228.943 16.451 C 231.819 16.552 234.652 16.856 237.407 17.357 L 228.766 21.951" fill="rgb(205,208,211)"></path><path d="M 245.963 40.943 C 243.313 41.813 240.567 42.517 237.73 43.015 C 234.93 43.505 232.099 43.797 229.258 43.89 L 236.763 37.594" fill="rgb(91,91,99)"></path><path d="M 235.06 27.946 C 237.175 29.833 239.151 31.871 240.972 34.045 C 242.799 36.221 244.467 38.527 245.963 40.943 L 236.762 37.594" fill="rgb(146,149,155)"></path><path d="M 229.261 43.884 C 229.838 41.111 230.616 38.383 231.588 35.722 C 232.557 33.048 233.718 30.447 235.063 27.94 L 236.762 37.594" fill="rgb(205,208,211)"></path><path d="M 260.133 27.096 C 260.147 29.885 259.956 32.716 259.559 35.562 C 259.151 38.418 258.558 41.202 257.775 43.893 L 254.103 34.81" fill="rgb(146,149,155)"></path><path d="M 244.41 33.442 C 246.858 32.019 249.403 30.771 252.027 29.707 C 254.663 28.644 257.372 27.771 260.133 27.096 L 254.106 34.81" fill="rgb(205,208,211)"></path><path d="M 257.775 43.89 C 255.313 42.484 252.956 40.902 250.721 39.156 C 248.483 37.405 246.373 35.495 244.407 33.442 L 254.103 34.81" fill="rgb(91,91,99)"></path><path d="M 251.343 9.327 C 254.042 10.198 256.675 11.258 259.224 12.499 C 261.781 13.741 264.243 15.168 266.591 16.769 L 256.819 17.45" fill="rgb(146,149,155)"></path><path d="M 252.525 26.257 C 251.94 23.524 251.529 20.721 251.329 17.85 C 251.131 15.012 251.136 12.164 251.343 9.327 L 256.819 17.45" fill="rgb(205,208,211)"></path><path d="M 266.585 16.769 C 264.491 18.674 262.262 20.425 259.914 22.007 C 257.554 23.597 255.085 25.017 252.525 26.257 L 256.819 17.45" fill="rgb(91,91,99)"></path><g transform="translate(0 16.099)" id="ss10160178229_17"><path d="M 0 10.898 C -0.003 12.451 0.453 13.597 1.367 14.512 C 2.58 15.733 4.738 16.347 7.437 16.347 C 8.953 16.347 14.139 16.012 14.139 11.706 C 14.139 7.914 10.681 7.568 7.634 7.256 C 4.485 6.938 2.158 6.592 2.158 4.458 C 2.158 3.4 2.71 2.629 3.827 2.114 C 4.983 1.579 6.232 1.5 7.527 1.5 C 8.523 1.5 10.349 1.658 11.379 2.685 C 11.857 3.166 12.102 3.926 12.102 4.672 L 13.686 4.695 C 13.686 3.538 13.317 2.375 12.591 1.647 C 11.266 0.321 9.032 0.042 7.397 0.042 C 5.146 0.042 2.932 0.529 1.564 1.889 C 0.853 2.603 0.495 3.468 0.495 4.458 C 0.495 8.165 4.268 8.469 7.231 8.733 C 8.635 8.863 9.958 8.978 10.943 9.415 C 11.981 9.862 12.468 10.619 12.468 11.779 C 12.468 12.519 12.223 13.133 11.736 13.617 C 10.588 14.765 8.205 14.892 7.333 14.892 C 5.194 14.892 3.475 14.427 2.563 13.518 C 1.908 12.862 1.567 12.046 1.562 10.892 M 16.666 0.335 L 16.666 1.872 L 22.752 1.872 L 22.752 16.057 L 24.364 16.057 L 24.364 1.872 L 30.456 1.872 L 30.456 0.335 Z M 38.123 0.335 L 30.898 16.057 L 32.673 16.057 C 32.673 16.057 34.738 11.565 34.907 11.196 L 42.822 11.196 C 42.991 11.565 45.031 16.057 45.031 16.057 L 46.843 16.057 L 39.62 0.335 Z M 38.858 2.513 C 39.359 3.597 41.79 8.902 42.15 9.693 L 35.594 9.693 C 35.948 8.9 38.365 3.597 38.858 2.513 M 51.382 0.335 L 51.382 16.057 L 53.016 16.057 L 53.016 9.223 L 59.384 9.223 C 62.186 9.223 62.845 9.778 62.918 12.221 C 62.977 14.779 63.092 15.615 63.43 15.953 L 63.531 16.054 L 65.222 16.054 L 64.952 15.545 C 64.702 15.055 64.603 14.087 64.581 11.54 C 64.55 9.986 63.703 8.86 62.35 8.359 C 64.114 7.571 64.834 5.975 64.834 4.664 C 64.834 1.751 63.061 0.335 59.406 0.335 Z M 59.485 1.872 C 61.964 1.872 63.174 2.767 63.174 4.61 C 63.174 6.679 61.885 7.689 59.252 7.689 L 53.016 7.689 L 53.016 1.872 Z M 83.486 0.335 L 76.263 16.057 L 78.064 16.057 C 78.064 16.057 80.104 11.565 80.27 11.196 L 88.185 11.196 L 90.416 16.057 L 92.2 16.057 L 85.003 0.335 Z M 84.246 2.513 C 84.738 3.597 87.153 8.902 87.51 9.693 L 80.96 9.693 C 81.32 8.9 83.751 3.597 84.246 2.513 M 140.687 0.335 L 133.458 16.057 L 135.259 16.057 C 135.259 16.057 137.302 11.565 137.471 11.196 L 145.386 11.196 C 145.552 11.565 147.62 16.057 147.62 16.057 L 149.406 16.057 L 142.203 0.335 Z M 141.441 2.513 C 141.933 3.597 144.353 8.902 144.707 9.693 L 138.157 9.693 C 138.517 8.9 140.948 3.597 141.441 2.513 M 97.276 0.335 L 97.276 16.057 L 108.602 16.057 L 108.602 14.517 L 98.914 14.517 L 98.914 0.335 Z M 112.102 0.335 L 112.102 16.057 L 123.405 16.057 L 123.405 14.517 L 113.739 14.517 L 113.739 0.335 Z M 126.798 16.057 L 128.413 16.057 L 128.413 0.335 L 126.798 0.335 Z M 166.854 0.335 L 166.854 13.451 C 165.844 12.226 155.476 0.335 155.476 0.335 L 153.835 0.335 L 153.835 16.057 L 155.45 16.057 L 155.45 2.938 C 156.458 4.16 166.829 16.06 166.829 16.06 L 168.458 16.06 L 168.458 0.335 Z M 195.144 0.335 L 195.144 16.057 L 207.819 16.057 L 207.819 14.517 L 196.767 14.517 L 196.767 8.68 L 207.259 8.68 L 207.259 7.169 L 196.767 7.169 L 196.767 1.872 L 207.69 1.872 L 207.69 0.335 Z M 173.559 8.216 C 173.559 13.186 177.015 16.386 182.079 16.386 C 186.798 16.386 189.657 13.2 190.034 10.048 L 190.084 9.659 L 188.379 9.659 L 188.326 9.944 C 187.783 12.975 185.386 14.852 182.077 14.852 C 177.192 14.852 175.242 11.416 175.242 8.204 C 175.242 4.278 178.075 1.537 182.139 1.537 C 185.231 1.537 187.451 3.014 188.092 5.491 L 188.151 5.753 L 189.857 5.753 L 189.758 5.334 C 188.987 1.942 186.204 0 182.136 0 C 176.362 0.003 173.559 4.261 173.559 8.216" fill="rgb(255, 255, 255)"></path></g></g></svg>