<svg xmlns="http://www.w3.org/2000/svg" xmlns:xlink="http://www.w3.org/1999/xlink" viewBox="0 0 164 32"><path d="M 45.946 16.494 L 49.141 9.551 L 54.483 9.551 L 47.464 23.094 L 44.427 23.094 L 37.382 9.551 L 42.724 9.551 Z M 79.152 13.273 C 81.09 13.273 82.216 14.672 82.216 16.336 C 82.216 18.051 81.091 19.372 79.152 19.372 C 77.214 19.372 76.087 18.051 76.087 16.336 C 76.087 14.673 77.214 13.273 79.152 13.273 Z M 82.058 23.094 L 86.825 23.094 L 86.825 1.182 L 82.058 1.182 L 82.058 10.871 C 81.064 9.683 79.44 9.102 77.895 9.102 C 73.914 9.102 71.164 12.429 71.164 16.31 C 71.164 20.191 73.967 23.544 77.947 23.544 C 79.518 23.544 81.168 22.937 82.007 21.59 L 82.059 21.59 L 82.059 23.094 Z M 96.306 13.273 C 98.244 13.273 99.37 14.672 99.37 16.336 C 99.37 18.051 98.244 19.372 96.306 19.372 C 94.368 19.372 93.242 18.051 93.242 16.336 C 93.242 14.673 94.368 13.273 96.306 13.273 Z M 103.978 9.551 L 99.211 9.551 L 99.211 10.871 C 98.215 9.683 96.592 9.102 95.048 9.102 C 91.067 9.102 88.316 12.429 88.316 16.31 C 88.316 20.191 91.12 23.544 95.1 23.544 C 96.671 23.544 98.32 22.937 99.159 21.59 L 99.211 21.59 L 99.211 23.094 L 103.978 23.094 Z M 111.861 23.094 L 107.094 23.094 L 107.094 13.511 L 105.418 13.511 L 105.418 9.55 L 107.094 9.55 L 107.094 7.835 C 107.094 5.961 107.147 4.588 108.455 3.083 C 109.634 1.684 111.337 0.918 113.144 0.918 C 113.877 0.918 114.532 1.05 115.187 1.394 L 115.187 5.538 C 114.636 5.3 114.139 5.09 113.509 5.09 C 112.28 5.09 111.861 5.829 111.861 7.36 L 111.861 9.551 L 115.186 9.551 L 115.186 13.511 L 111.861 13.511 L 111.861 23.094 Z M 137.839 11.293 L 137.892 11.293 C 138.991 9.657 140.328 9.102 142.188 9.102 C 145.801 9.102 147.243 11.399 147.243 14.726 L 147.243 23.094 L 142.475 23.094 L 142.475 16.494 C 142.475 15.201 142.685 12.93 140.328 12.93 C 138.39 12.93 137.84 14.383 137.84 16.072 L 137.84 23.094 L 133.073 23.094 L 133.073 9.551 L 137.84 9.551 L 137.84 11.293 Z M 153.71 14.355 C 153.997 12.956 155.151 12.217 156.539 12.217 C 157.822 12.217 158.999 13.062 159.236 14.355 Z M 163.662 16.627 C 163.662 12.006 160.964 9.102 156.303 9.102 C 151.93 9.102 148.865 11.822 148.865 16.337 C 148.865 21.009 152.191 23.544 156.644 23.544 C 159.708 23.544 162.719 22.093 163.479 18.898 L 158.896 18.898 C 158.372 19.794 157.639 20.138 156.618 20.138 C 154.653 20.138 153.632 19.083 153.632 17.127 L 163.663 17.127 L 163.663 16.627 Z M 69.397 16.666 C 69.397 20.872 66.015 24.28 61.844 24.28 C 57.672 24.279 54.291 20.87 54.292 16.665 C 54.292 12.46 57.674 9.051 61.845 9.052 C 66.017 9.052 69.398 12.461 69.397 16.666 Z M 57.629 16.634 C 57.629 18.98 59.515 20.882 61.842 20.883 C 64.17 20.884 66.058 18.984 66.06 16.638 C 66.063 14.292 64.179 12.387 61.852 12.383 C 62.498 10.237 64.018 9.365 64.018 9.365 C 60.872 9.365 58.157 11.998 57.628 15.33 C 57.581 15.643 57.629 16.634 57.629 16.634 Z M 30.507 16.061 C 30.507 24.358 23.835 31.082 15.606 31.082 C 7.376 31.082 0.704 24.358 0.704 16.061 C 0.704 7.763 7.376 1.038 15.606 1.038 C 23.835 1.038 30.507 7.763 30.507 16.061 Z M 7.288 15.996 C 7.288 20.626 11.012 24.381 15.606 24.381 C 20.201 24.381 23.925 20.627 23.925 15.996 C 23.925 11.369 20.209 7.618 15.622 7.609 C 16.897 3.374 19.895 1.655 19.895 1.655 C 13.688 1.655 8.331 6.849 7.288 13.423 C 7.193 14.041 7.288 15.996 7.288 15.996 Z M 116.343 16.08 C 116.343 11.875 119.724 8.467 123.895 8.467 C 128.065 8.467 131.446 11.875 131.446 16.08 C 131.446 20.285 128.065 23.693 123.895 23.693 C 119.724 23.693 116.343 20.285 116.343 16.08 Z M 128.111 16.112 C 128.111 13.766 126.224 11.863 123.897 11.862 C 121.569 11.861 119.681 13.762 119.678 16.108 C 119.675 18.455 121.559 20.36 123.887 20.364 C 123.241 22.509 121.72 23.381 121.72 23.381 C 124.867 23.381 127.581 20.749 128.111 17.416 C 128.159 17.104 128.111 16.112 128.111 16.112 Z" fill="rgb(255, 255, 255)"></path></svg>