<svg xmlns="http://www.w3.org/2000/svg" xmlns:xlink="http://www.w3.org/1999/xlink" viewBox="0 0 39 39"><g id="ss11869459530_1"><path d="M 0 0 L 39.2 0 L 39.2 39.2 L 0 39.2 Z" fill="transparent"></path><path d="M 38.26 36.49 C 38.26 37.43 37.486 38.26 36.491 38.26 L 2.654 38.26 C 1.714 38.26 0.885 37.486 0.885 36.49 L 0.885 2.654 C 0.885 1.714 1.659 0.885 2.654 0.885 L 36.491 0.885 C 37.431 0.885 38.26 1.659 38.26 2.654 Z M 36.491 0 L 2.654 0 C 1.216 0 0 1.216 0 2.654 L 0 36.49 C 0 37.983 1.216 39.144 2.654 39.144 L 36.491 39.144 C 37.984 39.144 39.145 37.928 39.145 36.49 L 39.145 2.654 C 39.2 1.216 37.984 0 36.491 0" fill="rgb(255,255,255)"></path></g><g id="ss11869459530_4"><path d="M 0 0 L 39.2 0 L 39.2 39.2 L 0 39.2 Z" fill="rgb(255, 255, 255)"></path><path d="M 38.26 36.49 C 38.26 37.43 37.486 38.26 36.491 38.26 L 2.654 38.26 C 1.714 38.26 0.885 37.486 0.885 36.49 L 0.885 2.654 C 0.885 1.714 1.659 0.885 2.654 0.885 L 36.491 0.885 C 37.431 0.885 38.26 1.659 38.26 2.654 Z" fill="rgb(255, 255, 255)"></path></g><g id="ss11869459530_7"><path d="M 0 0 L 39.2 0 L 39.2 39.2 L 0 39.2 Z" fill="transparent"></path><path d="M 22.834 31.238 L 21.342 31.238 L 21.342 29.358 L 22.834 29.358 C 23.443 29.358 23.774 29.635 23.774 30.298 C 23.83 30.906 23.498 31.238 22.834 31.238 M 24.106 32.178 C 24.935 31.846 25.378 31.238 25.378 30.298 L 25.378 30.132 C 25.322 28.861 24.327 28.252 23.111 28.252 L 19.849 28.252 L 19.849 34.721 L 21.397 34.721 L 21.397 32.399 L 22.503 32.399 L 23.664 34.721 L 25.378 34.721 L 24.106 32.178 M 11.721 28.197 L 9.952 28.197 L 8.902 31.017 L 7.685 28.916 C 7.464 28.529 6.911 28.197 6.414 28.197 L 5.529 28.197 L 8.183 32.841 L 7.519 34.666 L 8.404 34.666 C 8.846 34.666 9.344 34.334 9.51 33.892 Z M 16.697 32.952 L 17.361 34.666 L 19.019 34.666 L 16.863 28.971 C 16.697 28.529 16.2 28.197 15.757 28.197 L 13.878 28.197 L 11.445 34.666 L 12.274 34.666 C 12.716 34.666 13.214 34.334 13.38 33.892 L 13.712 32.952 L 16.697 32.952 M 16.31 31.846 L 14.099 31.846 L 15.039 29.414 C 15.149 29.137 15.315 29.137 15.37 29.414 L 16.31 31.846 M 28.197 32.952 L 31.183 32.952 L 31.515 33.892 C 31.681 34.334 32.178 34.666 32.621 34.666 L 33.45 34.666 L 31.017 28.197 L 29.137 28.197 C 28.695 28.197 28.197 28.529 28.032 28.971 L 25.875 34.666 L 27.534 34.666 L 28.197 32.952 M 29.524 29.414 C 29.635 29.137 29.801 29.137 29.856 29.414 L 30.796 31.846 L 28.584 31.846 L 29.524 29.414" fill="rgb(29, 29, 29)"></path></g><g id="ss11869459530_10"><path d="M 0 0 L 39.2 0 L 39.2 39.2 L 0 39.2 Z" fill="transparent"></path><path d="M 21.729 18.743 C 20.789 18.743 20.07 19.462 20.07 20.401 C 20.07 21.341 20.789 22.06 21.729 22.06 C 22.669 22.06 23.387 21.341 23.387 20.401 C 23.387 19.462 22.613 18.743 21.729 18.743 M 17.527 18.743 C 16.587 18.743 15.868 19.462 15.868 20.401 C 15.868 21.341 16.587 22.06 17.527 22.06 C 18.467 22.06 19.185 21.341 19.185 20.401 C 19.185 19.462 18.411 18.743 17.527 18.743 M 25.931 18.743 C 24.991 18.743 24.272 19.462 24.272 20.401 C 24.272 21.341 24.991 22.06 25.931 22.06 C 26.871 22.06 27.589 21.341 27.589 20.401 C 27.589 19.462 26.871 18.743 25.931 18.743 M 13.269 18.743 C 12.329 18.743 11.611 19.462 11.611 20.401 C 11.611 21.341 12.329 22.06 13.269 22.06 C 14.209 22.06 14.928 21.341 14.928 20.401 C 14.928 19.462 14.209 18.743 13.269 18.743 M 32.842 21.286 C 32.399 20.401 31.625 18.909 31.515 18.411 C 31.515 18.411 31.072 17.25 32.289 17.084 C 32.786 17.029 33.173 16.642 33.173 16.144 L 33.173 15.591 C 33.173 15.536 33.118 15.426 33.008 15.426 L 31.017 15.426 C 30.962 15.426 29.58 15.591 29.58 17.25 C 29.524 20.125 29.58 20.512 28.806 20.623 C 28.75 20.623 28.695 20.567 28.695 20.512 L 28.695 20.401 C 28.695 18.853 27.479 17.637 25.931 17.637 C 25.157 17.637 24.438 17.969 23.94 18.466 C 23.94 18.522 23.885 18.522 23.83 18.522 C 23.774 18.522 23.719 18.466 23.719 18.466 C 23.221 17.969 22.503 17.637 21.729 17.637 C 20.955 17.637 20.236 17.969 19.738 18.466 C 19.738 18.522 19.683 18.522 19.628 18.522 C 19.572 18.522 19.517 18.466 19.517 18.466 C 19.019 17.969 18.301 17.637 17.527 17.637 C 16.753 17.637 16.034 17.969 15.536 18.466 C 15.536 18.522 15.481 18.522 15.426 18.522 C 15.37 18.522 15.315 18.466 15.315 18.466 C 14.817 17.969 14.099 17.637 13.325 17.637 C 11.777 17.637 10.56 18.853 10.56 20.401 L 10.56 20.512 C 10.56 20.567 10.505 20.623 10.394 20.623 C 9.62 20.512 9.676 20.125 9.62 17.25 C 9.62 15.591 8.238 15.426 8.183 15.426 L 6.192 15.426 C 6.137 15.426 6.027 15.481 6.027 15.591 L 6.027 16.144 C 6.027 16.642 6.414 17.029 6.911 17.084 C 8.127 17.25 7.685 18.411 7.685 18.411 C 7.519 18.909 6.801 20.401 6.358 21.286 C 6.082 21.839 5.529 23.276 6.414 24.659 C 6.911 25.433 7.519 26.207 9.676 26.152 L 29.58 26.152 C 31.736 26.207 32.344 25.433 32.842 24.659 C 33.671 23.276 33.118 21.894 32.842 21.286 M 18.964 16.255 C 19.019 16.31 19.241 16.31 19.406 16.31 L 22.226 16.31 C 20.789 15.038 19.904 11.887 19.904 10.007 C 19.904 8.072 20.789 4.921 22.226 3.704 L 19.406 3.704 C 19.241 3.704 19.019 3.704 18.964 3.76 C 18.964 3.76 16.421 6.248 16.421 10.007 C 16.476 13.822 18.964 16.255 18.964 16.255 M 25.101 16.255 C 25.157 16.31 25.378 16.31 25.544 16.31 L 28.363 16.31 C 26.926 15.038 26.041 11.887 26.041 10.007 C 26.041 8.072 26.926 4.921 28.363 3.704 L 25.544 3.704 C 25.378 3.704 25.157 3.704 25.101 3.76 C 25.101 3.76 22.558 6.192 22.558 10.007 C 22.558 13.822 25.101 16.255 25.101 16.255 M 10.339 10.007 C 10.339 6.192 12.882 3.76 12.882 3.76 C 12.938 3.704 13.159 3.704 13.325 3.704 L 16.144 3.704 C 14.707 4.976 13.822 8.127 13.822 10.007 C 13.822 11.942 14.707 15.038 16.144 16.31 L 13.325 16.31 C 13.159 16.31 12.938 16.31 12.882 16.255 C 12.882 16.255 10.339 13.822 10.339 10.007" fill="rgb(29, 29, 29)"></path></g></svg>